# xmcd
#
# Track frame offsets:
#	150
#	29675
#	44975
#	67725
#	80925
#	96050
#	114452
#	126767
#	144967
#	152955
#	162300
#	178787
#	196587
#	214787
#	234437
#	250412
#	270612
#	293787
#	312012
#
# Disc length: 4420 seconds
#
# Revision: 20
# Processed by: cddbd v1.5.2PL0 Copyright (c) Steve Scherf et al.
# Submitted via: audiograbber 1.83.01
#
DISCID=15114213
DTITLE=Mike Batt - The Very Best of Mike Batt
DYEAR=1991
DGENRE=Pop
TTITLE0=The Ride To Adagir
TTITLE1=The Walls Of The World
TTITLE2=Insh' Allah
TTITLE3=It Seemed Like A Good Idea At The Time
TTITLE4=Railway Hotel
TTITLE5=Don't Let Me Be Misunderstood
TTITLE6=The Fires Of Rabat
TTITLE7=Caravan On The Move
TTITLE8=Journey To Badek
TTITLE9=Caravan Song
TTITLE10=Theme From 'Caravans'
TTITLE11=The Winds Of Change
TTITLE12=Portishead Radio
TTITLE13=Mona
TTITLE14=Love Makes You Crazy
TTITLE15=Whispering Fools
TTITLE16=Imbécile (Vocal: Roger Chapman)
TTITLE17=Lady Of The Dawn (Vocal: Mike Batt)
TTITLE18=Run Like The Wind (Vocal: Roger Chapman)
EXTD=YEAR: 1991
EXTT0=
EXTT1=
EXTT2=
EXTT3=
EXTT4=
EXTT5=
EXTT6=
EXTT7=
EXTT8=
EXTT9=
EXTT10=
EXTT11=
EXTT12=
EXTT13=
EXTT14=
EXTT15=
EXTT16=
EXTT17=
EXTT18=
PLAYORDER=
